<?xml version="1.0" standalone="no"?>
<!DOCTYPE svg PUBLIC "-//W3C//DTD SVG 20010904//EN"
 "http://www.w3.org/TR/2001/REC-SVG-20010904/DTD/svg10.dtd">
<svg version="1.0" xmlns="http://www.w3.org/2000/svg"
 width="1024.000000pt" height="1024.000000pt" viewBox="0 0 1024.000000 1024.000000"
 preserveAspectRatio="xMidYMid meet">
<metadata>
Created by potrace 1.14, written by Peter Selinger 2001-2017
</metadata>
<g transform="translate(0.000000,1024.000000) scale(0.100000,-0.100000)"
fill="#000000" stroke="none">
<path d="M4735 9989 c-44 -3 -93 -12 -108 -18 -16 -6 -41 -11 -56 -11 -16 0
-45 -7 -64 -15 -20 -8 -55 -15 -77 -15 -22 0 -49 -6 -60 -12 -17 -11 -22 -10
-29 1 -11 17 -41 17 -116 -3 -32 -9 -71 -16 -85 -16 -14 0 -35 -7 -46 -15 -10
-8 -37 -15 -59 -15 -64 -1 -186 -34 -197 -53 -5 -9 -19 -17 -32 -17 -32 0
-148 -48 -164 -68 -8 -9 -20 -26 -27 -36 -8 -11 -28 -20 -47 -21 -18 -2 -40
-5 -48 -8 -8 -2 -34 -10 -57 -17 -26 -8 -43 -20 -47 -33 -4 -15 -11 -19 -34
-15 -23 3 -28 1 -25 -11 4 -18 -41 -43 -63 -34 -8 3 -14 0 -14 -5 0 -6 10 -12
22 -14 20 -3 20 -5 -14 -41 -20 -20 -44 -36 -54 -36 -11 1 -32 1 -49 0 l-30
-3 34 -14 c32 -14 33 -16 16 -34 -10 -11 -24 -20 -32 -20 -7 0 -18 -11 -23
-25 -5 -14 -13 -25 -17 -25 -9 0 -33 -48 -33 -67 0 -7 -20 -15 -50 -19 l-50
-7 27 -14 c42 -22 57 -53 26 -53 -9 0 -13 -3 -10 -7 12 -12 -15 -33 -43 -33
-18 0 -40 -11 -59 -31 -17 -17 -39 -29 -48 -28 -50 8 -200 -75 -190 -105 5
-14 -11 -46 -23 -46 -5 0 -35 -11 -67 -25 -43 -19 -54 -28 -43 -35 9 -5 24 -3
42 6 28 14 68 11 68 -5 0 -4 -23 -18 -50 -30 -28 -13 -55 -31 -60 -42 -6 -11
-21 -19 -35 -19 -14 0 -25 -4 -25 -9 0 -5 -12 -14 -27 -20 -39 -15 -108 -55
-141 -81 l-27 -21 32 4 c18 2 33 0 33 -4 0 -5 -101 -99 -139 -129 -12 -10 -29
-46 -36 -80 -4 -19 -12 -40 -17 -47 -5 -7 -7 -21 -3 -32 3 -11 0 -34 -8 -53
-8 -18 -14 -48 -15 -65 0 -18 -4 -38 -9 -45 -4 -7 -9 -32 -10 -56 -2 -24 -10
-53 -18 -66 -8 -12 -12 -26 -8 -30 4 -4 6 -22 5 -42 -2 -23 2 -36 13 -40 8 -3
12 -10 9 -16 -3 -5 -7 -43 -8 -84 -1 -63 1 -75 16 -80 23 -7 23 -26 -2 -66
-23 -38 -25 -60 -8 -88 10 -16 10 -24 0 -41 -12 -18 -11 -21 7 -26 20 -5 28
-32 14 -47 -10 -10 -14 -76 -4 -76 4 0 8 -6 9 -12 1 -7 6 -42 12 -78 6 -35 8
-70 5 -77 -2 -8 3 -13 14 -13 26 0 46 -26 33 -42 -12 -15 -13 -66 -2 -73 5 -3
6 -14 3 -25 -4 -14 0 -20 12 -20 12 0 16 -6 12 -20 -3 -11 -1 -22 4 -25 4 -3
6 -12 3 -20 -4 -9 4 -16 23 -21 69 -17 105 -72 41 -61 -18 3 -42 2 -52 -2 -17
-6 -15 -9 12 -20 18 -8 32 -17 32 -21 0 -9 71 -45 83 -42 4 1 7 -3 7 -8 0 -6
14 -10 30 -10 18 0 33 -6 36 -15 4 -8 11 -15 17 -15 6 0 21 -9 33 -21 l22 -21
-19 -41 c-10 -23 -19 -51 -19 -62 0 -11 -6 -29 -13 -40 -19 -28 -21 -162 -2
-172 10 -6 15 -34 17 -98 3 -100 16 -114 35 -38 7 26 17 66 22 88 6 22 20 87
31 145 12 58 23 114 26 125 3 11 10 40 15 63 10 48 46 120 69 139 8 7 30 15
48 19 17 3 32 10 32 15 0 16 88 21 132 7 41 -13 44 -18 65 -79 17 -50 26 -65
43 -67 21 -4 22 -1 15 47 -4 31 -3 57 3 64 5 7 15 38 22 69 l11 58 52 15 c78
22 258 43 490 56 240 13 578 1 862 -31 241 -27 291 -38 327 -68 27 -23 30 -30
26 -71 -5 -51 -36 -122 -56 -129 -7 -2 -10 2 -6 12 7 19 -37 42 -63 32 -16 -7
-15 -10 10 -30 33 -27 28 -51 -13 -60 -16 -3 -34 -15 -40 -27 -10 -17 -8 -25
11 -45 25 -26 36 -24 50 14 7 18 13 22 20 15 9 -9 -6 -55 -38 -114 -2 -4 11
-4 29 0 22 4 34 14 37 26 2 11 8 26 14 34 6 7 12 20 13 28 2 8 9 22 17 31 12
14 27 54 31 82 1 3 8 24 18 45 9 22 22 55 28 73 7 18 22 38 33 44 26 13 352
12 378 -2 10 -6 19 -15 19 -21 0 -6 11 -38 24 -72 14 -34 28 -75 32 -92 6 -29
6 -29 -11 -10 -9 11 -14 14 -10 8 3 -7 1 -13 -5 -13 -22 0 -30 -48 -14 -92 15
-44 28 -58 54 -58 9 0 3 11 -18 31 -24 22 -32 38 -30 60 3 40 23 36 41 -9 16
-39 72 -102 92 -102 23 0 23 13 -2 66 -14 30 -22 62 -19 70 9 23 24 8 37 -36
13 -42 34 -52 44 -21 7 25 -3 49 -24 56 -10 3 -23 16 -29 29 -10 22 -8 24 24
31 56 10 36 30 -29 29 -56 -1 -57 0 -68 35 -17 51 -17 115 1 136 25 30 72 44
202 59 431 52 949 52 1308 0 165 -24 202 -34 230 -63 24 -25 25 -32 25 -129 0
-97 1 -103 20 -100 14 2 25 18 38 58 21 66 43 87 103 96 48 7 74 -6 72 -34 -3
-38 4 -48 52 -81 28 -19 50 -35 50 -35 0 -1 11 -31 24 -68 14 -37 32 -120 41
-185 35 -256 48 -314 65 -297 11 11 22 87 24 176 0 36 4 70 9 74 4 4 7 16 7
26 0 10 6 27 13 39 10 17 9 22 -10 37 -13 10 -28 40 -37 75 -8 31 -18 62 -22
68 -13 22 71 79 173 119 36 14 49 36 26 44 -12 5 -13 9 -3 21 7 9 15 13 18 10
6 -6 32 42 32 59 0 6 -5 4 -10 -4 -5 -8 -10 -10 -10 -4 0 6 9 23 21 38 19 24
20 30 9 56 -7 17 -10 44 -6 61 3 17 1 40 -5 51 -10 19 -9 20 15 14 28 -7 34 2
14 23 -11 10 -10 15 3 24 22 17 41 55 33 68 -4 6 -2 14 4 18 10 6 19 42 26
109 2 18 11 41 20 51 9 10 13 26 9 39 -3 13 -1 22 6 22 6 0 11 9 11 20 0 11 7
20 15 20 8 0 12 6 10 13 -12 33 -11 107 1 118 16 13 19 49 4 49 -5 0 -10 7
-10 15 0 8 5 15 11 15 6 0 8 8 5 18 -4 12 2 28 17 44 23 24 23 30 20 158 -2
73 -8 140 -12 149 -5 9 -9 27 -9 41 0 37 -31 178 -49 230 -21 57 -71 142 -148
248 -33 46 -77 106 -98 135 -20 29 -48 68 -61 87 -40 59 -314 329 -366 361
-27 17 -59 44 -70 60 -12 16 -46 45 -76 65 -30 20 -59 45 -65 56 -6 11 -29 31
-52 46 -23 15 -67 46 -98 70 -53 40 -261 152 -283 152 -5 0 -43 16 -83 36 -83
40 -235 87 -363 113 -47 9 -91 20 -97 24 -25 16 -214 57 -348 76 -306 45 -351
52 -365 57 -23 9 -624 12 -715 3z m-1875 -980 c12 -8 10 -9 -7 -4 -14 4 -32
-1 -50 -13 -15 -11 -41 -23 -58 -26 -16 -3 -24 -3 -17 0 6 3 12 12 12 20 0 8
7 14 15 14 8 0 15 5 15 10 0 13 71 13 90 -1z m855 -649 c8 0 17 -10 20 -21 6
-17 9 -19 16 -8 6 9 9 -1 9 -31 0 -44 18 -94 21 -60 1 8 1 23 0 33 -3 21 17
23 25 2 9 -22 27 -18 21 5 -6 22 8 37 18 20 9 -15 28 -12 22 4 -8 20 4 28 20
14 7 -6 16 -8 20 -4 4 3 15 -6 25 -21 l19 -28 -6 51 c-6 50 -6 52 19 52 14 0
26 -5 26 -10 0 -5 5 -6 10 -3 9 6 15 -21 11 -52 -3 -25 20 -23 30 4 10 26 11
27 24 10 18 -25 79 -41 104 -27 28 14 52 12 73 -7 17 -15 18 -15 18 2 0 11 5
15 15 11 10 -4 19 2 24 16 7 20 8 20 29 -10 12 -16 22 -35 22 -41 0 -18 14
-13 28 10 10 15 17 18 26 10 6 -6 21 -8 33 -5 21 6 39 -19 27 -37 -11 -18 16
-37 46 -34 17 2 33 -2 40 -11 16 -18 30 -18 30 0 0 24 20 29 41 10 18 -16 19
-16 19 0 0 13 5 16 20 11 17 -5 20 -2 20 23 0 26 3 29 23 24 12 -3 28 -12 36
-20 13 -13 17 -12 31 6 18 22 81 25 88 4 2 -6 8 -12 13 -12 4 0 6 6 3 14 -3 8
-1 23 5 33 10 17 10 17 11 1 0 -21 16 -24 23 -5 4 9 8 8 17 -3 9 -12 10 -5 5
28 -5 27 -3 42 4 42 6 0 11 -7 11 -15 0 -8 7 -15 16 -15 9 0 23 -8 30 -17 13
-17 14 -17 8 1 -6 16 -4 17 17 11 13 -4 31 -13 39 -20 20 -16 49 -27 85 -32
17 -3 37 -11 46 -19 9 -8 24 -12 34 -8 9 4 20 2 24 -4 3 -5 15 -12 26 -14 11
-1 28 -12 37 -23 12 -15 19 -17 28 -9 15 15 50 6 50 -13 0 -10 6 -13 16 -9 9
3 20 6 25 6 5 0 9 7 9 15 0 8 5 15 10 15 6 0 10 -4 10 -9 0 -5 14 -14 30 -20
27 -9 30 -8 30 11 0 21 1 20 21 -3 16 -18 24 -21 37 -12 9 5 18 19 18 29 1 11
2 23 3 28 2 14 32 -16 44 -44 8 -20 11 -22 14 -7 5 21 26 22 43 3 21 -26 40
-8 34 33 -5 34 -3 37 20 36 14 -1 29 -4 32 -8 11 -11 33 5 27 20 -5 13 -1 15
26 10 46 -10 101 -54 101 -83 0 -14 9 -28 23 -35 21 -12 21 -11 7 6 -14 17
-13 18 12 13 26 -5 26 -4 11 19 -13 20 -14 26 -4 33 9 5 10 10 2 14 -13 9 -15
36 -2 36 5 0 14 -13 20 -30 15 -44 32 -38 19 6 -13 49 8 64 39 28 22 -26 43
-25 43 2 0 11 4 12 19 5 23 -13 33 -4 21 19 -9 16 -7 17 15 6 14 -6 25 -16 25
-21 0 -6 8 -11 18 -12 44 -5 82 -16 82 -25 0 -5 4 -7 9 -3 5 3 13 0 16 -5 4
-6 18 -10 32 -8 21 2 27 -3 37 -32 13 -40 29 -46 34 -12 3 23 4 23 23 6 17
-16 19 -16 19 -1 0 10 7 17 15 17 15 0 18 -9 16 -45 -2 -19 -1 -19 13 -1 8 10
19 15 25 11 6 -3 11 1 11 10 0 12 5 15 16 11 9 -4 23 -1 30 5 10 8 19 5 39
-15 19 -19 33 -24 49 -20 15 3 29 -1 40 -12 16 -16 18 -15 23 5 6 24 16 27 31
8 6 -7 28 -12 49 -11 21 1 49 -6 63 -14 14 -9 28 -15 33 -14 4 1 7 -2 7 -7 0
-5 13 -14 28 -20 16 -7 36 -27 45 -46 9 -18 31 -53 49 -77 19 -25 40 -59 47
-76 7 -18 18 -32 23 -32 5 0 7 -9 3 -20 -5 -15 -3 -18 8 -14 11 4 17 -4 22
-26 4 -17 15 -39 26 -49 10 -9 21 -33 23 -52 3 -19 5 -34 6 -34 1 0 3 -25 5
-55 2 -48 29 -134 56 -180 5 -8 13 -24 18 -36 5 -11 15 -27 23 -35 36 -37 107
-131 113 -149 4 -11 11 -20 16 -20 5 0 9 -13 9 -30 0 -16 6 -44 14 -62 8 -18
17 -49 21 -68 4 -28 15 -41 55 -68 45 -29 50 -36 51 -70 l1 -37 10 34 9 34 25
-25 c20 -19 24 -31 18 -52 -5 -21 -9 -24 -15 -14 -8 11 -10 11 -18 -1 -10 -15
-43 -8 -66 15 -8 8 -30 17 -48 19 -19 3 -47 9 -62 15 -27 10 -28 12 -22 70 6
71 27 61 -192 89 -110 15 -159 25 -173 37 -12 12 -15 21 -8 28 6 6 6 14 -1 23
-8 9 -8 17 0 27 9 11 -7 27 -83 81 -52 37 -102 77 -110 90 -8 12 -31 33 -51
45 -19 12 -32 27 -29 32 4 7 2 8 -5 4 -7 -4 -19 -5 -29 -1 -14 5 -14 7 -2 15
11 7 8 10 -12 10 -16 0 -28 4 -28 9 0 10 -40 19 -59 13 -11 -4 -11 -6 0 -14
15 -10 -55 -3 -87 9 -12 4 -15 3 -10 -5 4 -7 1 -12 -6 -13 -10 0 -10 -2 0 -6
6 -2 12 -9 12 -14 0 -15 -54 -10 -78 7 -19 13 -33 14 -80 6 -40 -7 -63 -7 -77
1 -49 27 -326 24 -378 -5 -12 -7 -30 -11 -39 -9 -10 1 -18 -2 -18 -8 0 -7 -18
-9 -47 -5 -36 4 -44 3 -33 -5 12 -9 9 -11 -16 -11 -36 0 -94 -18 -94 -30 0 -4
10 -11 23 -15 13 -4 17 -8 10 -12 -7 -2 -13 -12 -13 -20 0 -15 12 -15 53 2 10
4 17 3 17 -4 0 -6 -5 -11 -11 -11 -5 0 -7 -5 -4 -10 5 -8 11 -7 21 1 8 6 25 8
39 5 17 -4 24 -3 23 6 -2 7 7 14 20 16 14 2 21 -1 20 -9 -2 -7 6 -15 17 -17
11 -2 23 -9 26 -14 4 -6 21 -3 44 6 42 18 91 21 100 6 3 -5 11 -7 18 -5 33 10
118 15 113 7 -9 -15 26 -20 169 -28 72 -4 132 -11 133 -15 2 -5 17 -9 33 -9
16 0 29 -4 29 -10 0 -5 18 -10 40 -10 22 0 40 -3 40 -8 0 -7 43 -24 117 -46
23 -6 45 -15 49 -19 4 -4 16 -7 26 -7 10 0 18 -4 18 -10 0 -5 12 -10 26 -10
14 0 23 -4 20 -9 -4 -5 0 -11 6 -14 31 -11 -4 -13 -87 -6 -160 14 -705 20
-830 10 l-120 -10 170 3 c109 2 148 0 110 -5 -33 -4 -170 -10 -305 -14 -135
-4 -292 -11 -350 -16 -58 -5 -161 -14 -230 -20 -130 -12 -250 -5 -465 27 -55
8 -140 15 -190 14 -93 0 -651 27 -695 35 -14 2 70 2 185 1 142 -2 186 0 135 5
-189 19 -742 8 -1050 -22 -58 -5 -156 -14 -219 -20 -63 -6 -118 -12 -123 -15
-4 -3 -8 -32 -8 -66 0 -45 -3 -59 -13 -55 -7 3 -24 -1 -38 -9 -36 -20 -48 -17
-60 13 -13 35 -13 173 0 186 6 6 11 17 11 24 0 7 11 31 25 53 14 22 22 40 19
40 -4 0 5 15 20 34 14 19 26 39 26 44 0 5 9 17 20 27 11 10 20 23 20 30 0 6
14 21 30 34 17 12 28 26 26 30 -3 4 1 16 8 27 9 11 12 31 9 52 -5 25 0 38 18
58 26 28 31 63 11 79 -20 16 6 82 56 141 22 27 48 66 56 86 11 25 30 45 56 60
22 13 46 35 53 51 7 16 20 27 32 27 15 0 20 7 22 26 1 33 20 46 56 38 20 -4
27 -2 27 10 0 9 6 16 13 16 7 0 20 9 30 20 9 11 24 20 32 20 8 0 15 6 15 13 0
6 9 1 19 -13 l19 -24 13 27 c8 18 20 27 36 27 14 0 23 6 23 15 0 9 6 12 15 9
10 -4 15 0 15 16 0 11 5 18 10 15 6 -3 10 3 10 14 0 12 7 21 15 21 9 0 15 -9
15 -22 0 -20 3 -18 16 10 16 31 34 43 34 22 0 -5 4 -10 10 -10 11 0 1 32 -14
42 -14 9 25 48 42 42 8 -2 20 -4 27 -4z m-102 -55 c-5 -13 -23 -22 -23 -11 0
15 14 35 21 31 4 -3 6 -12 2 -20z m734 3 c-3 -8 -6 -5 -6 6 -1 11 2 17 5 13 3
-3 4 -12 1 -19z m1433 -30 c0 -5 -6 -8 -14 -8 -9 0 -12 7 -9 21 4 16 8 17 14
7 5 -7 9 -16 9 -20z m-10 -928 c-8 -5 -22 -10 -30 -10 -13 0 -13 1 0 10 8 5
22 10 30 10 13 0 13 -1 0 -10z m1257 -226 c-3 -3 -12 -4 -19 -1 -8 3 -5 6 6 6
11 1 17 -2 13 -5z m-724 -31 c-13 -2 -33 -2 -45 0 -13 2 -3 4 22 4 25 0 35 -2
23 -4z m-3673 -128 c0 -28 -4 -35 -19 -35 -11 0 -23 -4 -26 -10 -3 -5 1 -10
10 -10 9 0 13 -4 10 -10 -10 -15 -35 -12 -35 5 0 8 -4 15 -10 15 -15 0 -12 36
4 49 11 9 15 7 21 -11 7 -21 8 -20 12 10 6 45 33 43 33 -3z m-220 -11 c0 -17
-26 -19 -36 -3 -7 12 15 31 28 23 4 -3 8 -12 8 -20z m130 -42 c0 -4 -9 -13
-20 -20 -18 -11 -20 -10 -20 8 0 13 7 20 20 20 11 0 20 -3 20 -8z"/>
<path d="M5725 8140 c3 -5 10 -10 16 -10 5 0 9 5 9 10 0 6 -7 10 -16 10 -8 0
-12 -4 -9 -10z"/>
<path d="M3780 7493 c-8 -2 -21 -7 -29 -9 -9 -3 -10 -8 -3 -17 9 -10 -1 -13
-48 -12 -37 0 -55 4 -49 10 20 20 7 25 -23 8 -34 -18 -111 -26 -102 -11 12 18
-53 -6 -91 -34 -22 -16 -48 -32 -57 -35 -10 -3 -18 -9 -18 -14 0 -4 -15 -15
-34 -24 -18 -9 -43 -25 -54 -35 -12 -11 -27 -20 -35 -20 -8 0 -30 -13 -48 -30
-19 -16 -39 -30 -45 -30 -7 0 -14 -7 -18 -15 -4 -10 1 -15 17 -16 16 -1 17 -3
5 -6 -9 -2 -16 -13 -15 -23 1 -16 8 -18 57 -14 54 4 185 23 205 29 6 2 -2 4
-17 4 -29 1 -40 21 -12 21 8 0 37 7 65 16 27 9 60 14 74 12 28 -6 35 8 8 14
-12 3 -1 12 32 26 28 13 58 27 67 32 36 20 96 22 162 6 37 -10 92 -19 122 -21
31 -3 95 -10 142 -16 48 -7 103 -11 123 -10 20 0 53 -6 74 -15 25 -10 52 -13
83 -9 59 8 56 8 62 6 3 -2 20 -4 38 -7 24 -3 32 0 32 11 0 9 14 24 32 35 l32
19 -28 11 c-18 6 -26 15 -23 24 7 16 -13 26 -51 26 -35 0 -102 24 -111 39 -5
7 -34 15 -65 18 -32 3 -60 11 -62 17 -3 7 -23 10 -51 7 -36 -2 -45 0 -41 10 4
11 -21 14 -137 14 -79 0 -141 3 -138 8 5 8 -4 8 -27 0z m-133 -99 c-3 -3 -12
-4 -19 -1 -8 3 -5 6 6 6 11 1 17 -2 13 -5z"/>
<path d="M3410 7448 c-16 -7 -20 -12 -12 -15 8 -3 21 2 30 11 19 18 17 19 -18
4z"/>
<path d="M3336 7399 c-15 -12 -25 -23 -22 -26 2 -3 17 7 33 21 33 31 26 34
-11 5z"/>
<path d="M4472 7268 c5 -15 28 -23 28 -10 0 5 -7 13 -16 16 -10 4 -14 1 -12
-6z"/>
<path d="M7055 7150 c3 -5 11 -10 16 -10 6 0 7 5 4 10 -3 6 -11 10 -16 10 -6
0 -7 -4 -4 -10z"/>
<path d="M3160 7140 c0 -5 10 -10 23 -10 18 0 19 2 7 10 -19 13 -30 13 -30 0z"/>
<path d="M4358 7103 c7 -3 16 -2 19 1 4 3 -2 6 -13 5 -11 0 -14 -3 -6 -6z"/>
<path d="M7050 7100 c8 -5 20 -10 25 -10 6 0 3 5 -5 10 -8 5 -19 10 -25 10 -5
0 -3 -5 5 -10z"/>
<path d="M5808 7083 c6 -2 18 -2 25 0 6 3 1 5 -13 5 -14 0 -19 -2 -12 -5z"/>
<path d="M2760 7020 c0 -19 3 -21 12 -12 9 9 9 15 0 24 -9 9 -12 7 -12 -12z"/>
<path d="M3160 9421 c0 -25 6 -27 13 -6 4 8 2 17 -3 20 -6 4 -10 -3 -10 -14z"/>
<path d="M3838 7030 c-188 -17 -295 -70 -426 -209 l-52 -56 43 -3 c24 -2 56 2
73 9 16 7 45 13 64 14 83 5 141 18 136 31 -3 7 2 18 10 24 8 7 14 20 14 30 0
19 30 50 48 50 7 0 12 5 12 10 0 23 29 8 39 -21 10 -29 40 -60 85 -86 12 -7
58 -12 105 -13 l83 0 39 39 c22 21 42 53 45 70 4 17 12 31 20 31 7 0 43 -16
80 -35 37 -19 75 -35 85 -35 14 0 19 -7 19 -26 0 -26 -2 -26 -43 -21 -49 7
-76 -3 -54 -21 13 -11 81 -12 92 -1 3 3 22 4 43 2 59 -5 70 7 52 59 -14 40
-21 46 -95 82 -44 21 -107 46 -140 56 -73 21 -258 30 -377 20z m179 -66 c7
-18 -14 -35 -34 -27 -7 3 -13 14 -13 24 0 24 38 26 47 3z m393 -114 c0 -5 -4
-10 -9 -10 -6 0 -13 5 -16 10 -3 6 1 10 9 10 9 0 16 -4 16 -10z"/>
<path d="M5970 6977 c-30 -7 -74 -22 -98 -35 -23 -12 -47 -22 -52 -22 -16 0
-47 -35 -42 -48 2 -7 -1 -12 -6 -12 -16 0 -21 -38 -7 -50 7 -6 20 -8 28 -4 9
3 48 -1 86 -10 85 -19 86 -19 72 -2 -6 7 -42 16 -81 20 -39 4 -70 12 -70 18 0
6 10 8 22 5 14 -4 30 0 43 12 29 27 136 82 146 75 5 -3 9 -17 9 -31 0 -35 29
-81 66 -103 22 -14 52 -20 106 -21 95 -3 137 20 174 92 13 27 29 49 35 49 26
0 67 -32 79 -62 7 -18 23 -41 34 -50 l21 -17 -24 -9 c-37 -13 -16 -20 130 -43
181 -27 174 -27 177 -4 6 47 -108 134 -244 186 -148 57 -483 94 -604 66z m244
-43 c27 -10 13 -44 -19 -44 -2 0 -11 7 -20 16 -13 14 -14 19 -3 25 16 10 22
11 42 3z"/>
<path d="M2126 6851 c-24 -26 -11 -45 25 -37 16 3 29 2 29 -3 0 -5 25 -8 55
-8 l54 0 -32 33 c-26 28 -39 34 -73 34 -28 0 -46 -6 -58 -19z"/>
<path d="M7975 6774 c-16 -8 -43 -27 -60 -41 -30 -26 -26 -24 35 13 8 5 26 9
40 10 133 6 166 15 93 28 -56 9 -75 7 -108 -10z"/>
<path d="M7148 6669 c-9 -24 -19 -55 -23 -69 -12 -45 -78 -194 -97 -223 -25
-35 -62 -54 -141 -72 -49 -12 -53 -14 -17 -9 68 7 115 22 142 44 32 25 88 138
128 258 31 94 38 153 8 71z"/>
<path d="M4810 6620 c-20 -16 -21 -20 -8 -20 10 0 22 9 28 20 13 25 11 25 -20
0z"/>
<path d="M3101 6610 c0 -8 7 -31 15 -50 l14 -35 -6 35 c-7 40 -24 76 -23 50z"/>
<path d="M4669 6523 c-45 -74 -109 -152 -145 -173 -19 -12 -56 -28 -82 -35
-26 -7 -40 -14 -31 -14 34 -2 126 32 152 57 32 30 69 81 111 155 33 55 28 64
-5 10z"/>
<path d="M3140 6484 c0 -3 12 -28 26 -55 27 -48 71 -80 111 -78 10 0 -1 7 -25
16 -41 14 -92 70 -92 100 0 6 -4 15 -10 18 -5 3 -10 3 -10 -1z"/>
<path d="M5590 6443 c0 -5 16 -30 36 -56 37 -50 86 -79 154 -90 39 -6 27 0
-52 28 -35 12 -57 29 -88 71 -42 53 -50 61 -50 47z"/>
<path d="M3308 6343 c7 -3 16 -2 19 1 4 3 -2 6 -13 5 -11 0 -14 -3 -6 -6z"/>
<path d="M3358 6333 c7 -3 16 -2 19 1 4 3 -2 6 -13 5 -11 0 -14 -3 -6 -6z"/>
<path d="M3478 6313 c6 -2 18 -2 25 0 6 3 1 5 -13 5 -14 0 -19 -2 -12 -5z"/>
<path d="M3668 6293 c7 -3 16 -2 19 1 4 3 -2 6 -13 5 -11 0 -14 -3 -6 -6z"/>
<path d="M3773 6283 c20 -2 54 -2 75 0 20 2 3 4 -38 4 -41 0 -58 -2 -37 -4z"/>
<path d="M6778 6283 c7 -3 16 -2 19 1 4 3 -2 6 -13 5 -11 0 -14 -3 -6 -6z"/>
<path d="M3963 6273 c15 -2 39 -2 55 0 15 2 2 4 -28 4 -30 0 -43 -2 -27 -4z"/>
<path d="M5963 6273 c9 -2 23 -2 30 0 6 3 -1 5 -18 5 -16 0 -22 -2 -12 -5z"/>
<path d="M6708 6273 c6 -2 18 -2 25 0 6 3 1 5 -13 5 -14 0 -19 -2 -12 -5z"/>
<path d="M6618 6263 c7 -3 16 -2 19 1 4 3 -2 6 -13 5 -11 0 -14 -3 -6 -6z"/>
<path d="M6288 6253 c46 -2 118 -2 160 0 42 1 5 3 -83 3 -88 0 -123 -2 -77 -3z"/>
<path d="M4635 5903 c-30 -8 -55 -34 -55 -58 0 -25 -22 -35 -84 -35 -22 0 -36
-3 -33 -7 4 -3 74 -10 157 -14 88 -5 176 -16 213 -26 93 -26 403 -24 505 4 54
15 85 18 120 12 69 -11 230 -11 237 1 4 6 -13 10 -43 10 -56 0 -83 19 -62 45
19 22 -29 65 -73 65 -49 0 -155 -34 -271 -87 -97 -45 -100 -46 -181 -40 -78 4
-88 8 -172 57 -58 34 -110 57 -153 66 -68 14 -73 15 -105 7z m866 -90 c-19 -4
-21 -7 -10 -14 9 -6 1 -9 -28 -9 -23 0 -45 5 -49 12 -5 8 0 9 14 6 12 -4 25
-2 28 3 3 5 20 8 37 8 26 -1 28 -3 8 -6z"/>
<path d="M4685 5314 c-38 -9 -75 -20 -81 -25 -6 -5 -31 -13 -55 -18 -161 -32
-213 -41 -281 -46 -74 -6 -114 -25 -92 -44 16 -14 92 -34 103 -27 6 4 11 2 11
-5 0 -8 4 -8 15 1 10 9 33 11 70 7 30 -3 57 -1 60 4 8 12 45 12 45 0 0 -5 -5
-11 -10 -13 -6 -2 58 -3 142 -2 104 0 161 4 176 13 13 7 26 10 30 7 3 -3 -1
-6 -8 -6 -7 0 -10 -3 -7 -6 4 -4 12 -2 20 4 10 8 30 7 78 -4 49 -12 86 -14
154 -8 157 13 245 8 245 -14 0 -8 6 -12 14 -9 7 3 30 2 50 -3 32 -7 35 -6 26
10 -6 10 -10 22 -10 26 0 7 34 1 64 -11 14 -6 17 -5 12 3 -4 7 -1 12 8 12 8 0
16 -5 18 -12 3 -8 12 -9 34 -1 21 7 37 6 59 -2 16 -7 35 -10 43 -8 7 3 46 0
87 -7 75 -13 165 -7 165 11 0 12 -33 25 -125 50 -38 11 -86 28 -105 38 -19 10
-64 24 -100 31 -36 7 -75 19 -87 26 -12 8 -36 14 -52 14 -17 0 -52 7 -78 16
-71 24 -122 14 -233 -48 -45 -24 -65 -29 -88 -19 -12 6 -36 11 -52 11 -17 0
-33 7 -38 17 -9 15 -73 39 -132 48 -14 2 -56 -3 -95 -11z m375 -88 c0 -2 -7
-6 -15 -10 -8 -3 -15 -1 -15 4 0 6 7 10 15 10 8 0 15 -2 15 -4z"/>
<path d="M4975 5280 c-3 -5 -1 -10 4 -10 6 0 11 5 11 10 0 6 -2 10 -4 10 -3 0
-8 -4 -11 -10z"/>
<path d="M4385 5113 c-4 -18 -11 -33 -16 -33 -19 0 -8 -18 15 -24 14 -3 28
-15 31 -27 5 -15 10 -18 18 -10 15 15 30 14 24 -1 -8 -22 13 -50 31 -42 9 3
29 6 45 5 15 -1 27 3 27 8 0 23 -24 60 -46 72 -13 7 -24 16 -24 21 0 4 -7 8
-15 8 -8 0 -15 7 -15 16 0 12 -7 14 -29 9 -23 -5 -30 -2 -34 12 -3 13 -7 9
-12 -14z"/>
<path d="M5574 5084 c28 -29 31 -41 15 -64 -9 -13 -10 -12 -5 3 3 9 1 17 -4
17 -6 0 -10 7 -10 15 0 8 -5 15 -11 15 -17 0 -6 -52 14 -64 14 -9 20 -7 28 7
9 15 13 16 27 5 13 -11 15 -10 10 10 -7 26 -5 27 16 6 9 -8 16 -11 16 -5 0 6
-9 20 -20 31 -11 11 -20 27 -20 35 0 11 -11 15 -41 15 l-42 0 27 -26z"/>
<path d="M5673 5084 c-15 -32 17 -50 41 -23 23 27 20 44 -7 44 -14 0 -28 -8
-34 -21z"/>
<path d="M4050 5040 c0 -5 7 -10 15 -10 8 0 15 5 15 10 0 6 -7 10 -15 10 -8 0
-15 -4 -15 -10z"/>
<path d="M5426 5041 c-4 -7 -5 -15 -2 -18 9 -9 19 4 14 18 -4 11 -6 11 -12 0z"/>
<path d="M5500 5035 c0 -8 2 -15 4 -15 2 0 12 -3 21 -6 15 -6 15 -4 4 15 -16
25 -29 27 -29 6z"/>
<path d="M4865 4853 c-78 -5 -99 -12 -86 -27 6 -7 23 -11 40 -8 16 2 32 -1 35
-7 4 -6 31 -11 59 -12 29 0 70 -3 92 -7 44 -8 165 6 165 20 0 4 10 8 22 8 14
0 19 3 12 10 -9 9 -215 31 -264 28 -14 -1 -47 -3 -75 -5z"/>
<path d="M4790 4790 c-8 -5 -10 -10 -5 -10 6 0 17 5 25 10 8 5 11 10 5 10 -5
0 -17 -5 -25 -10z"/>
<path d="M6735 4465 c-5 -2 -35 -11 -65 -20 -30 -9 -62 -23 -70 -30 -8 -7 -47
-24 -87 -38 -40 -15 -80 -31 -90 -36 -10 -6 -38 -15 -63 -20 -56 -12 -126 -36
-162 -56 -14 -8 -33 -15 -42 -15 -9 0 -37 -10 -63 -22 -26 -12 -65 -23 -87
-23 -75 -3 -81 -5 -110 -32 -16 -15 -36 -27 -45 -28 -9 -1 -25 -4 -36 -8 -11
-3 -33 -8 -49 -11 -16 -3 -37 -12 -46 -21 -17 -16 -46 -24 -97 -28 -11 -1 -19
-5 -16 -9 2 -5 -5 -8 -16 -8 -11 0 -22 4 -25 8 -6 10 -352 6 -367 -4 -5 -3
-16 -1 -23 5 -10 9 -20 9 -39 0 -20 -9 -35 -8 -69 3 -33 12 -58 13 -103 7 -33
-5 -85 -11 -115 -13 -30 -3 -63 -8 -72 -11 -11 -4 -18 -3 -18 4 0 6 -11 11
-25 11 -18 0 -23 -4 -18 -16 4 -12 2 -15 -8 -12 -8 3 -13 10 -12 15 1 6 -55 9
-145 7 -129 -2 -151 0 -180 17 -18 10 -47 19 -63 19 -16 0 -46 7 -66 15 -19 8
-62 15 -94 15 -48 0 -63 4 -85 25 -15 14 -36 25 -46 25 -11 0 -38 11 -61 24
-23 14 -62 28 -86 32 -24 4 -52 15 -62 25 -18 18 -107 49 -141 49 -11 0 -16 5
-13 10 10 16 -25 12 -41 -5 -12 -12 -20 -13 -36 -4 -19 10 -20 9 -14 -12 4
-13 8 -43 11 -67 3 -39 2 -42 -13 -30 -11 9 -14 10 -8 1 4 -8 2 -13 -7 -13
-18 0 -11 -44 9 -61 8 -6 14 -20 14 -30 0 -17 11 -24 33 -20 5 1 7 -4 4 -11
-7 -20 12 -48 31 -48 9 0 23 -13 30 -30 8 -17 27 -37 42 -45 15 -8 34 -20 42
-28 18 -17 71 -39 88 -35 8 2 22 -14 32 -34 10 -20 27 -42 38 -48 11 -6 20
-17 20 -25 0 -10 11 -15 35 -15 23 0 35 -5 35 -14 0 -20 67 -49 96 -42 19 5
25 2 30 -18 6 -27 78 -78 98 -70 8 3 35 -2 60 -10 26 -9 62 -16 81 -16 28 0
35 -4 35 -20 0 -21 2 -21 57 -24 22 -1 33 4 36 15 3 9 21 20 43 24 24 5 32 10
21 12 -10 3 -16 10 -14 16 3 7 11 10 18 8 74 -18 123 -16 159 7 2 2 -1 7 -9
11 -7 5 10 6 38 3 44 -4 52 -1 74 22 22 23 32 26 94 26 l70 0 52 -50 c28 -27
46 -50 39 -50 -9 0 -8 -3 2 -10 8 -5 37 -10 63 -10 27 0 57 -5 67 -10 13 -7
28 -7 46 0 19 7 36 7 59 -1 25 -10 40 -10 62 0 24 10 34 9 61 -5 29 -14 35
-14 50 -1 27 23 78 31 85 13 9 -22 24 -20 50 8 12 13 41 29 64 35 23 6 45 16
48 21 4 6 17 7 29 4 14 -3 29 1 38 10 9 8 27 18 41 21 14 4 28 13 31 21 3 8
10 14 15 14 6 0 30 14 54 30 29 20 57 30 81 30 22 0 36 5 36 13 0 15 69 41
123 46 5 1 5 6 2 11 -3 6 4 10 18 10 14 0 30 7 37 15 7 8 19 15 27 15 11 0 14
8 11 30 -4 24 -1 30 14 30 10 0 18 5 18 11 0 7 9 9 24 5 22 -5 30 -1 83 44 7
5 19 10 28 10 8 0 15 3 15 8 0 4 14 13 31 21 18 8 34 22 36 32 3 11 11 19 18
19 7 0 15 3 17 8 6 14 76 61 81 55 4 -3 11 6 16 21 6 14 17 26 26 26 8 0 25
11 37 25 12 14 25 25 29 25 12 0 55 43 68 68 7 13 10 36 6 53 -5 20 -3 29 6
29 7 0 -5 18 -26 40 -37 38 -47 43 -70 35z"/>
<path d="M4858 4293 c7 -3 16 -2 19 1 4 3 -2 6 -13 5 -11 0 -14 -3 -6 -6z"/>
<path d="M3002 3810 c-172 -31 -250 -69 -300 -146 -15 -23 -35 -66 -36 -77 -1
-4 -6 -11 -12 -15 -6 -4 -14 -17 -18 -28 -5 -17 -18 -23 -57 -28 -27 -4 -62
-12 -77 -18 -15 -7 -38 -12 -52 -12 -15 -1 -29 -10 -36 -23 -6 -13 -14 -20
-17 -17 -4 4 -11 -4 -16 -18 -18 -47 -36 -52 -69 -18 -29 28 -31 29 -37 10 -6
-19 -35 -27 -49 -13 -9 10 -78 33 -97 33 -9 0 -22 -6 -28 -14 -7 -9 -30 -13
-66 -11 -54 2 -71 -7 -39 -19 27 -10 5 -26 -29 -19 -31 5 -31 5 -12 -10 11 -9
26 -17 33 -17 6 0 12 -4 12 -10 0 -15 -43 -12 -66 4 -24 17 -97 5 -125 -20 -9
-8 -35 -15 -58 -16 -40 0 -54 -11 -28 -21 6 -3 -4 -6 -23 -7 -29 -1 -32 -3
-15 -10 17 -7 15 -9 -12 -9 -17 -1 -40 -4 -50 -8 -16 -6 -16 -5 -4 10 12 15
11 17 -13 17 -33 0 -42 -3 -39 -12 2 -5 -5 -8 -15 -8 -29 0 -72 -24 -78 -43
-4 -12 -11 -16 -22 -12 -48 20 -76 24 -83 13 -4 -7 -22 -9 -47 -4 -27 4 -43 2
-48 -6 -4 -6 -3 -8 2 -5 6 3 16 2 24 -4 12 -7 11 -9 -5 -10 -11 -1 3 -5 30 -9
43 -5 38 -7 -40 -8 -134 -3 -131 -3 -126 -34 0 -4 -11 -11 -25 -14 -18 -5 -29
-1 -39 12 -12 16 -16 17 -24 5 -6 -9 -26 -14 -55 -14 -47 1 -69 -13 -45 -27 7
-5 -6 -6 -30 -3 -23 3 -52 1 -64 -5 -12 -5 -30 -13 -40 -16 -10 -3 -15 -10
-12 -16 4 -6 -5 -10 -20 -10 -14 0 -24 -4 -21 -9 9 -14 55 -19 60 -7 3 8 5 8
5 0 1 -8 14 -9 43 -3 59 11 78 11 78 -2 0 -5 -5 -7 -11 -3 -6 3 -23 -8 -37
-25 -25 -30 -30 -32 -69 -25 -29 4 -43 12 -43 22 0 12 -8 13 -42 8 -24 -4 -47
-11 -52 -17 -6 -5 -23 -9 -38 -9 -15 0 -28 -4 -28 -10 0 -5 -16 -10 -35 -10
-19 0 -35 -4 -35 -8 0 -5 -18 -17 -40 -27 -22 -10 -40 -22 -40 -27 0 -5 -6 -8
-12 -7 -28 3 -49 -1 -44 -10 7 -11 -72 -41 -104 -40 -14 0 -19 3 -12 6 6 2 12
9 12 14 0 14 -26 10 -40 -6 -7 -8 -23 -15 -36 -15 -13 0 -24 -4 -24 -9 0 -14
26 -32 35 -23 5 4 5 2 2 -4 -4 -7 -33 -15 -64 -19 -32 -4 -63 -11 -69 -16 -6
-5 -31 -11 -55 -13 -38 -4 -44 -7 -41 -26 2 -17 -2 -20 -18 -15 -20 6 -20 2
-20 -687 0 -381 -1 -790 -1 -908 0 -118 0 -419 1 -667 l0 -453 5105 0 5105 0
-4 1413 c-2 776 -4 1415 -5 1420 -2 12 -46 8 -60 -5 -11 -11 -13 -10 -8 4 8
23 -45 52 -82 45 -27 -6 -66 14 -54 27 4 4 0 4 -10 0 -10 -3 -17 -1 -17 5 0 6
-8 11 -17 12 -12 1 -9 4 7 8 24 7 23 8 -14 19 -22 6 -43 9 -49 5 -9 -5 -57 15
-67 29 -3 4 -23 10 -44 12 -47 7 -72 13 -114 32 -18 8 -36 13 -41 10 -5 -3
-42 6 -82 20 -41 13 -85 26 -99 28 -14 2 -72 20 -130 39 -112 38 -160 51 -172
49 -5 -1 -8 3 -8 8 0 6 -9 10 -21 10 -11 0 -29 5 -39 10 -11 6 -44 12 -75 14
-31 2 -61 8 -68 14 -14 11 -59 24 -102 29 -46 5 -58 8 -90 23 -16 7 -49 14
-72 14 -22 1 -39 4 -36 9 2 4 -4 7 -14 7 -10 0 -31 7 -47 15 -18 10 -41 13
-58 10 -15 -4 -28 -3 -28 2 0 9 -85 36 -125 40 -11 1 -40 5 -65 8 -25 3 -50 7
-57 7 -7 1 -10 5 -7 9 7 11 -24 25 -73 33 -28 4 -43 2 -45 -6 -5 -15 -76 -14
-91 1 -18 18 -66 13 -79 -9 -21 -33 -42 -24 -37 16 1 12 -45 44 -63 44 -11 0
-16 5 -13 10 3 6 -3 10 -14 10 -11 0 -22 4 -25 9 -3 4 -26 11 -52 15 -25 3
-69 14 -97 23 -39 14 -51 15 -54 5 -7 -19 -23 -3 -23 24 0 20 -5 24 -31 24
-16 0 -28 4 -24 9 5 9 -24 24 -50 27 -23 2 -45 17 -45 30 0 8 -10 14 -22 14
-13 0 -30 5 -38 10 -12 8 -13 12 -2 19 10 6 2 13 -26 24 -22 9 -43 21 -46 26
-6 9 -44 18 -144 35 l-33 6 20 -28 c22 -30 81 -91 160 -167 29 -28 55 -62 58
-77 3 -16 10 -28 15 -28 23 0 -7 -120 -49 -194 -39 -71 -228 -241 -353 -317
-30 -18 -62 -41 -72 -51 -10 -10 -24 -18 -32 -18 -8 0 -43 -18 -78 -39 -264
-161 -668 -328 -903 -375 -44 -9 -100 -21 -125 -26 -25 -5 -139 -14 -255 -21
-384 -20 -856 11 -1225 83 -295 57 -618 157 -740 228 -75 44 -299 200 -385
268 -97 77 -299 285 -324 334 -35 67 9 151 127 240 102 79 148 124 177 176
l24 42 -27 -1 c-15 -1 -73 -9 -130 -19z m5188 -394 c0 -3 -4 -8 -10 -11 -5 -3
-10 -1 -10 4 0 6 5 11 10 11 6 0 10 -2 10 -4z m-6015 -26 c3 -5 -1 -10 -10
-10 -9 0 -13 5 -10 10 3 6 8 10 10 10 2 0 7 -4 10 -10z m-219 -83 c4 -4 -2 -7
-14 -7 -11 0 -23 4 -26 8 -6 10 30 9 40 -1z m-723 -194 c-7 -2 -19 -2 -25 0
-7 3 -2 5 12 5 14 0 19 -2 13 -5z m-183 -18 c0 -16 -17 -19 -44 -9 -22 9 -10
24 20 24 15 0 24 -6 24 -15z m103 8 c-7 -2 -19 -2 -25 0 -7 3 -2 5 12 5 14 0
19 -2 13 -5z m8782 -173 c-3 -5 -10 -10 -16 -10 -5 0 -9 5 -9 10 0 6 7 10 16
10 8 0 12 -4 9 -10z m-9335 -20 c0 -5 -4 -10 -10 -10 -5 0 -10 5 -10 10 0 6 5
10 10 10 6 0 10 -4 10 -10z m9365 -10 c-3 -5 -10 -10 -16 -10 -5 0 -9 5 -9 10
0 6 7 10 16 10 8 0 12 -4 9 -10z m-9450 -20 c-3 -5 -14 -10 -23 -10 -15 0 -15
2 -2 10 20 13 33 13 25 0z m9455 -24 c0 -11 -19 -15 -25 -6 -3 5 1 10 9 10 9
0 16 -2 16 -4z"/>
<path d="M8080 3450 c-12 -8 -12 -10 3 -16 21 -8 35 2 21 16 -5 5 -15 6 -24 0z"/>
<path d="M563 2973 c15 -2 39 -2 55 0 15 2 2 4 -28 4 -30 0 -43 -2 -27 -4z"/>
</g>
</svg>
