<svg width="196" height="47" viewBox="0 0 196 47" fill="none" xmlns="http://www.w3.org/2000/svg">
<path fill-rule="evenodd" clip-rule="evenodd" d="M32.6649 26.4529C30.459 26.4529 28.9473 28.2117 28.9473 30.2647C28.9473 32.3176 30.459 34.0823 32.6649 34.0823C33.5061 34.0823 34.4531 33.647 34.9061 32.9117V33.8941H36.6002V23H34.9061V27.6235C34.4531 26.8882 33.5002 26.4529 32.6649 26.4529ZM32.759 27.9588C34.0649 27.9588 34.9061 29.0176 34.9061 30.2647C34.9061 31.5117 34.0649 32.5705 32.759 32.5705C31.4825 32.5705 30.6414 31.5117 30.6414 30.2647C30.6414 29.0235 31.4825 27.9588 32.759 27.9588Z" fill="black"/>
<path fill-rule="evenodd" clip-rule="evenodd" d="M57.9473 23V33.8941H59.6414V30.147C59.6414 28.9 60.2002 27.9529 61.3825 27.9529C62.5943 27.9529 62.9531 28.9058 62.9531 30.147V33.8999H64.6472V29.5882C64.6472 28.5882 64.5355 27.9823 64.1825 27.4412C63.7766 26.8353 63.0472 26.4588 62.0061 26.4588C60.9296 26.4588 60.0943 26.8764 59.6414 27.6588V23H57.9473Z" fill="black"/>
<path fill-rule="evenodd" clip-rule="evenodd" d="M4.8943 34.2529H3.75901L0.947266 27H2.7649L4.33548 31.5882L5.97077 27H7.63546L9.26487 31.5882L10.8354 27H12.659L9.84133 34.2529H8.70605L6.81194 28.8353L4.8943 34.2529Z" fill="black"/>
<path fill-rule="evenodd" clip-rule="evenodd" d="M16.759 27C14.459 27 12.9473 28.7588 12.9473 30.8117C12.9473 32.8647 14.459 34.6294 16.759 34.6294C19.0943 34.6294 20.6002 32.8705 20.6002 30.8117C20.606 28.7529 19.0943 27 16.759 27ZM14.6473 30.8117C14.6473 29.5647 15.4884 28.5059 16.7649 28.5059C18.0708 28.5059 18.9119 29.5647 18.9119 30.8117C18.9119 32.0588 18.0708 33.1176 16.7649 33.1176C15.4884 33.1176 14.6473 32.0588 14.6473 30.8117Z" fill="black"/>
<path fill-rule="evenodd" clip-rule="evenodd" d="M20.9473 27.1882V34.4411H22.6414V30.6882C22.6414 29.4412 23.2002 28.4941 24.3825 28.4941C25.5943 28.4941 25.9531 29.447 25.9531 30.6882V34.4411H27.6472V30.1294C27.6472 29.1294 27.5355 28.5235 27.1825 27.9823C26.7766 27.3765 26.0472 27 25.0061 27C23.9355 27 23.0943 27.4176 22.6414 28.2V27.1882H20.9473Z" fill="black"/>
<path fill-rule="evenodd" clip-rule="evenodd" d="M41.5237 27C39.2355 27 37.9473 28.6353 37.9473 30.8117C37.9473 32.7882 39.1296 34.6294 41.5708 34.6294C43.4237 34.6294 44.5884 33.5058 44.8237 32.2647H43.1119C42.8943 32.7764 42.5355 33.2117 41.5708 33.2117C40.2002 33.2117 39.6884 32.3706 39.6708 31.3294H44.8061C44.8825 30.8647 44.8825 30.5235 44.8825 30.2706C44.8825 28.4176 43.4061 27 41.5237 27ZM39.6884 30.0647C39.6884 28.9882 40.4825 28.4118 41.4767 28.4118C42.5002 28.4118 43.2355 29.047 43.2355 30.0647H39.6884Z" fill="black"/>
<path fill-rule="evenodd" clip-rule="evenodd" d="M45.9473 27.0882V34.3411H47.6414V31.2117C47.6414 29.4059 48.4355 28.5823 49.8825 28.5823C50.1472 28.5823 50.2884 28.6 50.5472 28.6588V27.1059C50.359 27.0294 50.1414 27 49.8825 27C48.9178 27 47.9708 27.5882 47.6414 28.2588V27.0941H45.9473V27.0882Z" fill="black"/>
<path fill-rule="evenodd" clip-rule="evenodd" d="M53.8767 28.3353C54.7002 28.3353 55.0414 28.7706 55.0414 29.4588H56.6884C56.6884 28.0412 55.459 27 53.9178 27C52.4414 27 51.1943 27.7294 51.1943 29.1C51.1943 30.3588 51.912 30.7353 52.9237 31.1235C54.4472 31.7176 55.1766 31.7647 55.1766 32.447C55.1766 33.0706 54.6649 33.2882 53.9943 33.2882C53.1884 33.2882 52.5943 32.947 52.5943 31.9941H50.9473C50.9473 33.7058 52.3473 34.6294 53.9002 34.6294C55.4884 34.6294 56.7943 33.9294 56.7943 32.4176C56.7943 31.0941 55.8296 30.7353 54.8178 30.347C53.4943 29.8353 52.8296 29.7529 52.8296 29.1294C52.8355 28.6176 53.3002 28.3353 53.8767 28.3353Z" fill="black"/>
<path fill-rule="evenodd" clip-rule="evenodd" d="M69.6649 27C67.459 27 65.9473 28.7588 65.9473 30.8117C65.9473 32.8647 67.459 34.6294 69.6649 34.6294C70.5061 34.6294 71.4531 34.1941 71.9061 33.4588V34.4411H73.6002V27.1882H71.9061V28.1706C71.459 27.4353 70.5061 27 69.6649 27ZM69.7649 28.5059C71.0708 28.5059 71.9119 29.5647 71.9119 30.8117C71.9119 32.0588 71.0708 33.1176 69.7649 33.1176C68.4884 33.1176 67.6473 32.0588 67.6473 30.8117C67.6473 29.5706 68.4884 28.5059 69.7649 28.5059Z" fill="black"/>
<path fill-rule="evenodd" clip-rule="evenodd" d="M74.9473 27.0882V34.3411H76.6414V31.2117C76.6414 29.4059 77.4355 28.5823 78.8825 28.5823C79.1472 28.5823 79.2884 28.6 79.5531 28.6588V27.1059C79.3649 27.0294 79.1472 27 78.8825 27C77.9178 27 76.9708 27.5882 76.6414 28.2588V27.0941H74.9473V27.0882Z" fill="black"/>
<path fill-rule="evenodd" clip-rule="evenodd" d="M81.6943 30.0706C81.6943 28.9941 82.4884 28.4176 83.4825 28.4176C84.5061 28.4176 85.2414 29.0529 85.2414 30.0706H81.6943ZM81.6767 31.3294H86.806C86.8825 30.8647 86.8825 30.5235 86.8825 30.2706C86.8825 28.4176 85.4061 27 83.5237 27C81.2355 27 79.9473 28.6353 79.9473 30.8117C79.9473 32.7882 81.1296 34.6294 83.5708 34.6294C85.4237 34.6294 86.5884 33.5058 86.8237 32.2647H85.1119C84.8943 32.7764 84.5355 33.2117 83.5708 33.2117C82.2061 33.2176 81.6943 32.3764 81.6767 31.3294Z" fill="black"/>
<path fill-rule="evenodd" clip-rule="evenodd" d="M41.9531 9.8823C42.4942 10.4235 42.4942 11.2999 41.9531 11.8411L37.806 15.9881L26.9473 5.12938L32.0767 0L41.9531 9.8823Z" fill="black"/>
<path fill-rule="evenodd" clip-rule="evenodd" d="M54.8237 0L59.9531 5.12938L54.8296 10.2529L48.9473 4.37644L48.9767 4.34703C49.512 4.67644 50.2178 4.60586 50.6825 4.14703L54.8237 0Z" fill="black"/>
<path fill-rule="evenodd" clip-rule="evenodd" d="M43.8296 0L53.706 9.87641C54.2472 10.4176 54.2531 11.2941 53.7119 11.8352L49.559 15.9881L37.9473 4.37644L37.9767 4.34703C38.512 4.67644 39.2178 4.60586 39.6825 4.14704L43.8296 0Z" fill="black"/>
<path d="M24.9473 39.2059H26.8296V41.0529C26.8296 42.0529 26.512 43.0235 25.9414 43.7882C25.6473 44.1764 25.3179 44.5176 24.9531 44.7294V46.0529C25.7002 45.7705 26.3531 45.2294 26.9002 44.5059C27.5002 43.7117 27.8767 42.7412 27.9943 41.7235H31.5119V44.3588C31.5119 44.6353 31.2884 44.8529 31.0178 44.8529H29.8649V46.0529H31.4708C32.1531 46.0529 32.7119 45.5 32.7119 44.8117V41.7176V40.5176H31.5119H28.0355V39.2H33.3766V38H24.959V39.2059H24.9473Z" fill="black"/>
<path d="M56.0826 38H54.8826V39.047H53.9473V40.247H54.8826V41.8117L53.9473 42.1353V43.3353L54.8826 43.0117V44.3411C54.8826 44.6176 54.659 44.8353 54.3884 44.8353H53.9473V46.0352H54.8414C55.5237 46.0352 56.0826 45.4823 56.0826 44.7941V42.6L56.7825 42.3588V41.1588L56.0826 41.4V40.247H56.7825V39.047H56.0826V38Z" fill="black"/>
<path d="M51.7061 38H50.5061V42.9353H47.9473V44.1353H50.5061V46.0352H51.7061V44.1353H52.6825V42.9353H51.7061V38Z" fill="black"/>
<path d="M46.312 39.2H47.3943V38H44.0355V39.2H45.1178V39.9706H43.9473V41.1647H44.9943L43.9473 42.7823V44.9941L45.1178 43.1823V46.047H46.312V42.5647L47.4825 43.547V41.9823L46.5061 41.1647H47.4825V39.9706H46.312V39.2Z" fill="black"/>
<path d="M62.1766 39.9588V38.7588H60.1649V38H58.9649V38.7588H56.9531V39.9588H58.9649V40.6529H56.9531V41.8529H60.8884C60.6884 42.2941 60.2414 42.9059 59.5708 43.4882C59.0708 43.0588 58.7414 42.6059 58.5002 42.2235H57.1179C57.359 42.7294 57.7884 43.4706 58.5473 44.1823C58.0826 44.4294 57.5943 44.6529 56.9473 44.8117V46.0411C58.0473 45.8058 58.859 45.4235 59.559 44.9764C60.2472 45.4235 61.1414 45.8058 62.1708 46.047V44.8117C61.5825 44.6529 61.0178 44.4353 60.5767 44.1941C61.5119 43.3 62.0061 42.3588 62.1708 41.8529V40.6529H60.159V39.9588H62.1766Z" fill="black"/>
<path d="M41.2825 43H39.9473C40.0826 43.3235 41.0531 45.5 43.0002 46.2V44.8882C42.159 44.4118 41.5825 43.5412 41.2825 43Z" fill="black"/>
<path d="M43.106 38H41.8708C41.6355 38.9 41.1237 40.4882 40.4943 41.2706H40.3119H34.9473V42.4706H36.6767C36.4708 43.0823 35.9943 44.047 34.9473 44.6941V46.047C37.0237 45.1235 37.712 43.2882 37.9237 42.4706H43.3649V41.2706H41.9178C42.5884 40.0529 42.9943 38.4824 43.106 38Z" fill="black"/>
<path d="M37.2767 40.9059L36.2179 38H34.9473L36.0061 40.9059H37.2767Z" fill="black"/>
<path d="M40.2826 40.9059L39.2237 38H37.9473L39.0061 40.9059H40.2826Z" fill="black"/>
<path d="M50.7061 41.9294V40.7L48.9473 40V41.2235L50.7061 41.9294Z" fill="black"/>
<path d="M50.7061 39.9235V38.6941L48.9473 38V39.2176L50.7061 39.9235Z" fill="black"/>
<path d="M98.312 0H97.9473V45.7586H98.312V0Z" fill="black"/>
<path d="M117.624 19H111.483C110.636 19 109.947 19.6706 109.947 20.4941C109.947 21.3176 110.636 21.9882 111.483 21.9882H117.624C121.018 21.9882 123.765 24.6706 123.765 27.9705C123.765 31.2764 121.018 33.9529 117.624 33.9529H111.483C110.636 33.9529 109.947 34.6234 109.947 35.447C109.947 36.2705 110.636 36.9411 111.483 36.9411H117.624C122.712 36.9411 126.835 32.9235 126.835 27.9647C126.835 23.0176 122.712 19 117.624 19Z" fill="#000100"/>
<path d="M111.483 28.9882H117.624C118.471 28.9882 119.159 28.3176 119.159 27.4941C119.159 26.6706 118.471 26 117.624 26H111.483C110.635 26 109.947 26.6706 109.947 27.4941C109.947 28.3176 110.63 28.9882 111.483 28.9882Z" fill="#000100"/>
<path d="M189.018 29.6823C189.059 29.7176 189.112 29.7353 189.171 29.7412H189.2C190.1 29.6412 190.983 29.3882 191.8 28.9941C192.553 29.2941 193.33 29.5353 194.124 29.7176C194.159 29.7235 194.188 29.7235 194.224 29.7176C194.259 29.7117 194.288 29.6941 194.318 29.6764C194.347 29.6588 194.365 29.6294 194.383 29.6C194.394 29.5706 194.406 29.5353 194.406 29.5059V29.0176C194.406 28.9529 194.383 28.8941 194.335 28.847C194.288 28.8 194.23 28.7706 194.165 28.7706C193.718 28.6823 193.283 28.5647 192.853 28.4176C193.383 28.1118 193.865 27.7353 194.288 27.3V26.6706C194.288 26.5941 194.253 26.5235 194.2 26.4706C194.147 26.4176 194.071 26.3882 193.994 26.3882H191.171L191.241 26.2647C191.259 26.2353 191.265 26.2059 191.265 26.1765C191.265 26.1471 191.253 26.1118 191.241 26.0882C191.224 26.0588 191.206 26.0353 191.177 26.0235C191.147 26.0059 191.118 26 191.083 26H190.506C190.435 26 190.371 26.0176 190.306 26.0529C190.241 26.0882 190.194 26.1294 190.153 26.1882L190.124 26.2294C189.906 26.5706 189.653 26.8823 189.359 27.1647C189.324 27.1941 189.3 27.2294 189.283 27.2706C189.265 27.3118 189.253 27.3529 189.253 27.4V28.1176C189.253 28.147 189.259 28.1765 189.277 28.2C189.288 28.2235 189.312 28.247 189.336 28.2588C189.359 28.2765 189.388 28.2823 189.418 28.2823C189.447 28.2823 189.477 28.2765 189.5 28.2588C189.877 28.0117 190.218 27.7059 190.5 27.3588H192.718C192.394 27.5882 192.053 27.8 191.7 27.9882C191.371 27.8412 191.059 27.6882 190.824 27.5529C190.777 27.5294 190.718 27.5235 190.665 27.5353C190.612 27.547 190.565 27.5823 190.535 27.6294L190.241 28.0882C190.23 28.1118 190.224 28.1353 190.224 28.1647C190.224 28.1882 190.23 28.2176 190.241 28.2412C190.247 28.2647 190.259 28.2941 190.277 28.3117C190.294 28.3353 190.318 28.347 190.341 28.3588L190.594 28.4823C190.153 28.6353 189.694 28.7353 189.23 28.7882C189.153 28.8 189.083 28.8353 189.03 28.8941C188.977 28.9529 188.947 29.0235 188.947 29.1V29.5353C188.947 29.5706 188.953 29.6 188.971 29.6294C188.971 29.6353 188.988 29.6588 189.018 29.6823Z" fill="#000100"/>
<path d="M192.659 31.1765H192.694C192.724 31.1765 192.759 31.1706 192.783 31.1588C192.812 31.147 192.835 31.1294 192.859 31.1118C192.883 31.0882 192.9 31.0647 192.912 31.0353C192.924 31.0059 192.93 30.9765 192.93 30.9471V30.5118C192.93 30.4529 192.906 30.3941 192.871 30.3471C192.83 30.3 192.777 30.2706 192.718 30.2588C191.883 30.1118 191.041 30.0235 190.194 30C190.13 30 190.065 30.0235 190.018 30.0706C189.994 30.0941 189.977 30.1176 189.965 30.1471C189.953 30.1765 189.947 30.2059 189.947 30.2412V30.6765C189.947 30.7353 189.971 30.7882 190.012 30.8294C190.053 30.8706 190.106 30.8941 190.165 30.9C190.735 30.9353 192.124 31.0882 192.659 31.1765Z" fill="#000100"/>
<path d="M192.871 31.4118C191.659 31.1941 190.43 31.0588 189.194 31C189.13 31 189.065 31.0235 189.018 31.0647C188.994 31.0882 188.977 31.1118 188.965 31.1412C188.953 31.1706 188.947 31.2059 188.947 31.2353V31.6353C188.947 31.7 188.971 31.7647 189.018 31.8118C189.065 31.8588 189.124 31.8882 189.188 31.8882C190.394 31.9529 191.594 32.1 192.783 32.3235H192.841C192.894 32.3235 192.947 32.3059 192.988 32.2706C193.018 32.2471 193.041 32.2176 193.059 32.1824C193.077 32.1471 193.083 32.1118 193.083 32.0765V31.6765C193.083 31.6118 193.065 31.5529 193.03 31.5059C192.988 31.4588 192.93 31.4235 192.871 31.4118Z" fill="#000100"/>
<path d="M195.394 25.3647C195.365 25.2941 195.318 25.2294 195.265 25.1765C195.212 25.1235 195.141 25.0765 195.071 25.0471C195 25.0176 194.918 25 194.841 25H187.547C187.388 25 187.235 25.0647 187.124 25.1706C187.012 25.2765 186.947 25.4294 186.947 25.5823V33.2941C186.947 33.447 187.012 33.5941 187.124 33.7058C187.235 33.8176 187.388 33.8764 187.541 33.8764H194.835C194.994 33.8764 195.147 33.8176 195.259 33.7058C195.371 33.5941 195.435 33.447 195.435 33.2941V25.5823C195.441 25.5118 195.424 25.4353 195.394 25.3647ZM194.383 32.8352L188.024 32.8529V26.0588H194.383V32.8352Z" fill="#000100"/>
<path d="M178.947 25.0309C178.906 25.0074 178.853 24.9956 178.806 25.0015H178.194C178.106 25.0015 178.024 25.0309 177.953 25.078C177.883 25.125 177.824 25.1956 177.794 25.2721C177.371 26.3309 176.794 27.325 176.077 28.2191C175.994 28.325 175.947 28.4544 175.947 28.5897V29.5779C175.947 29.6191 175.959 29.6662 175.983 29.7015C176.006 29.7368 176.041 29.7662 176.083 29.7838C176.124 29.8015 176.171 29.8074 176.212 29.8015C176.253 29.7956 176.3 29.7779 176.33 29.7485C176.659 29.4544 176.965 29.1309 177.235 28.7838V33.472C177.235 33.5662 177.271 33.6544 177.341 33.7191C177.406 33.7838 177.494 33.8191 177.588 33.8191H178.141C178.188 33.8191 178.235 33.8073 178.277 33.7897C178.318 33.772 178.359 33.7485 178.388 33.7132C178.418 33.6779 178.447 33.6426 178.465 33.6015C178.483 33.5603 178.488 33.5132 178.488 33.4662V26.8485C178.747 26.3838 178.953 25.8956 179.1 25.3838C179.112 25.3368 179.118 25.2897 179.106 25.2427C179.1 25.1956 179.077 25.1544 179.053 25.1133C179.024 25.0897 178.988 25.0544 178.947 25.0309Z" fill="#000100"/>
<path d="M184.871 30.8882C184.824 30.8647 184.777 30.847 184.724 30.8411H184.212C184.112 30.8411 184.018 30.8823 183.947 30.9529C183.877 31.0235 183.835 31.1176 183.835 31.2117C183.835 31.4588 183.835 31.7941 183.806 31.947C183.788 32.0705 183.73 32.1823 183.63 32.2588C183.535 32.3353 183.412 32.3823 183.288 32.3764H180.612C180.559 32.3764 180.506 32.3588 180.459 32.3353C180.412 32.3117 180.371 32.2764 180.335 32.2353C180.294 32.1705 180.265 32.1 180.247 32.0294C180.235 31.9529 180.236 31.8823 180.253 31.8058C180.347 31.2882 181.065 30.2529 181.647 29.5235C181.865 29.2529 182.135 28.947 182.43 28.6235C182.6 28.4353 182.777 28.2353 182.953 28.0353C183.53 27.3588 184.077 26.7176 184.312 26.3941V26.3706C184.406 26.2471 184.453 26.0941 184.453 25.9412V25.3353C184.453 25.2471 184.418 25.1588 184.353 25.1C184.288 25.0412 184.2 25 184.112 25H179.324C179.224 25 179.13 25.0412 179.059 25.1059C178.988 25.1765 178.947 25.2706 178.947 25.3647V25.8882C178.947 25.9353 178.959 25.9823 178.977 26.0294C178.994 26.0765 179.024 26.1176 179.059 26.1471C179.094 26.1823 179.135 26.2059 179.183 26.2294C179.23 26.2471 179.277 26.2588 179.324 26.2588H182.806C181.906 27.2 180.747 28.6588 180.653 28.7765C179.671 30 179.135 30.9294 179.006 31.6C178.947 31.8529 178.941 32.1117 178.988 32.3647C179.036 32.6176 179.141 32.8588 179.288 33.0705C179.441 33.247 179.63 33.3882 179.841 33.4882C180.053 33.5882 180.283 33.6411 180.518 33.647H183.335C183.765 33.6529 184.177 33.5 184.494 33.2117C184.812 32.9294 185.006 32.5353 185.035 32.1117C185.065 31.8941 185.071 31.5882 185.083 31.347C185.083 31.3117 185.083 31.2823 185.088 31.2529C185.088 31.1529 185.047 31.0588 184.983 30.9882C184.959 30.947 184.918 30.9176 184.871 30.8882Z" fill="#000100"/>
<path d="M146.959 22H146.024C145.635 22 145.512 22.1294 145.512 22.5118V25.6353C144.683 25.4882 144.018 25.4176 143.494 25.4176C141.135 25.4176 139.947 26.6235 139.947 28.8706V31.1352C139.947 33.3646 141.171 34.4705 143.63 34.4705C144.783 34.4705 145.835 34.2882 146.8 33.9411C147.341 33.7235 147.477 33.5588 147.477 33.0293V22.5059C147.483 22.1353 147.347 22 146.959 22ZM145.518 32.3647C145.518 32.447 145.465 32.5117 145.383 32.547C144.941 32.6646 144.418 32.7294 143.824 32.7294C142.553 32.7294 141.924 32.1823 141.924 31.0764V28.9294C141.924 27.7588 142.571 27.1764 143.877 27.1764C144.3 27.1764 144.841 27.2412 145.524 27.3941V32.3647H145.518Z" fill="#000100"/>
<path d="M134.883 25C132.324 25 130.947 26.2529 130.947 28.5706V30.5176C130.947 32.6823 132.2 34.0529 134.847 34.0529C136.63 34.0529 137.853 33.5235 138.512 32.4647C138.765 32.0823 138.7 31.8176 138.306 31.6411L137.712 31.3294C137.306 31.1117 137.118 31.147 136.847 31.5294C136.459 32.1058 135.794 32.4058 134.847 32.4058C133.612 32.4058 132.912 31.8294 132.912 30.7529V30.1411H138.035C138.547 30.1411 138.8 29.9117 138.8 29.4294V28.4235C138.8 26.4176 137.465 25 134.883 25ZM136.835 28.6647H132.918V28.3C132.918 27.2235 133.612 26.6117 134.883 26.6117C136.171 26.6117 136.835 27.2235 136.835 28.3V28.6647Z" fill="#000100"/>
<path d="M153.3 25H152.759C151.488 25.0353 150.435 25.2 149.606 25.4941C149.065 25.7118 148.947 25.9059 148.947 26.4353V33.2941C148.947 33.6764 149.083 33.8058 149.471 33.8058H150.406C150.794 33.8058 150.918 33.6764 150.918 33.2941V27.147C150.918 27.0294 150.971 26.9647 151.088 26.947C151.53 26.8176 152.071 26.7471 152.7 26.7471H153.312C153.7 26.7471 153.835 26.6176 153.835 26.2353V25.5059C153.824 25.1118 153.688 25 153.3 25Z" fill="#000100"/>
<path d="M157.912 25C156.183 25 155.012 25.5765 154.4 26.7176C154.212 27.047 154.318 27.2941 154.688 27.4588L155.365 27.7412C155.753 27.8706 155.841 27.8412 156.094 27.4941C156.447 26.9647 157.041 26.7 157.877 26.7C159.1 26.7 159.571 27.2647 159.571 28.3353V28.8C159.206 28.7823 158.9 28.7647 158.653 28.7529C158.253 28.7294 158.012 28.7176 157.941 28.7176C155.177 28.7176 153.947 29.4117 153.947 31.3764C153.947 32.2882 154.359 32.9647 154.906 33.3941C155.447 33.8411 156.435 34.0529 157.877 34.0529C159.235 34.0529 160.253 33.9058 160.93 33.6235C161.406 33.4235 161.541 33.2588 161.541 32.6823V28.4C161.541 26.1412 160.335 25 157.912 25ZM159.571 32.1058C159.571 32.2235 159.506 32.2882 159.383 32.3352C158.977 32.4176 158.418 32.4647 157.688 32.4647C156.447 32.4647 156.094 32.1 156.094 31.3588C156.094 30.6294 156.5 30.2823 157.724 30.2823C157.741 30.2823 157.841 30.2882 158.018 30.2941C158.312 30.3059 158.83 30.3353 159.577 30.3647V32.1058H159.571Z" fill="#000100"/>
<path d="M174.299 26.0059H173.74C173.081 26.0059 172.875 26.1059 172.787 26.5176L171.852 30.3117C171.717 30.8588 171.617 31.5823 171.599 32.0294L171.564 32.3411H171.464C171.464 32.2411 171.346 31.1529 171.111 30.3059L169.975 26.5588C169.84 26.1118 169.722 26.0471 169.111 26.0471H168.723C168.111 26.0471 167.993 26.1118 167.858 26.5765L166.74 30.3059C166.534 31.0823 166.381 32.2411 166.381 32.3411H166.299C166.299 32.3411 166.146 30.9529 166.011 30.3235L165.046 26.5118C164.964 26.1 164.775 26 164.111 26H163.44C162.946 26 162.864 26.1176 163.017 26.5941L165.275 34.2235C165.358 34.5352 165.599 34.6882 165.987 34.6882H166.546C166.934 34.6882 167.175 34.5411 167.258 34.2235L168.499 29.9941C168.634 29.5294 168.734 28.9353 168.787 28.5588L168.823 28.2941H168.905L168.94 28.5588C168.993 28.9412 169.075 29.5353 169.211 29.9941L170.452 34.2235C170.552 34.5352 170.793 34.6882 171.181 34.6882H171.758C172.146 34.6882 172.387 34.5411 172.47 34.2235L174.74 26.5941C174.875 26.1176 174.793 26.0059 174.299 26.0059Z" fill="#000100"/>
</svg>
