<svg width="253" height="300" viewBox="0 0 253 300" fill="none" xmlns="http://www.w3.org/2000/svg">
<g clip-path="url(#clip0_16_45)">
<path d="M228.79 106.76C228.813 98.4528 226.266 90.3418 221.498 83.5388C216.731 76.7358 209.976 71.5737 202.16 68.76C202.871 65.1364 203.229 61.4526 203.23 57.76C203.224 45.5444 199.347 33.6451 192.154 23.7715C184.962 13.8979 174.825 6.55836 163.199 2.80732C151.574 -0.943725 139.059 -0.913163 127.452 2.89461C115.845 6.70238 105.744 14.0914 98.5998 24C93.3274 19.9276 86.8731 17.6814 80.2116 17.6006C73.5501 17.5198 67.0432 19.6089 61.6736 23.5522C56.304 27.4955 52.3634 33.079 50.4469 39.4594C48.5303 45.8397 48.7419 52.6705 51.0498 58.92C43.2243 61.7693 36.4581 66.9452 31.6602 73.7524C26.8623 80.5596 24.2624 88.672 24.2098 97C24.1769 105.346 26.7367 113.497 31.5357 120.325C36.3347 127.154 43.136 132.323 50.9998 135.12C49.3772 143.469 49.6218 152.073 51.7159 160.317C53.81 168.56 57.7019 176.238 63.1125 182.8C68.523 189.363 75.3184 194.647 83.0114 198.274C90.7044 201.901 99.1046 203.781 107.61 203.78C116.765 203.788 125.79 201.607 133.931 197.418C142.072 193.229 149.094 187.154 154.41 179.7C159.665 183.818 166.122 186.107 172.797 186.217C179.473 186.328 186.002 184.254 191.391 180.311C196.779 176.369 200.731 170.774 202.647 164.378C204.562 157.982 204.335 151.135 202 144.88C209.832 142.029 216.604 136.848 221.403 130.032C226.201 123.217 228.797 115.095 228.84 106.76" fill="white"/>
<path d="M104.64 87.76L149.41 108.17L194.57 68.6C196.857 57.1909 195.132 45.3422 189.689 35.058C184.246 24.7738 175.417 16.6854 164.697 12.1609C153.977 7.6364 142.023 6.95354 130.857 10.2278C119.691 13.5021 109.999 20.5325 103.42 30.13L95.8999 69.13L104.64 87.76Z" fill="#FEC514"/>
<path d="M58.31 135.17C55.9782 146.633 57.6882 158.549 63.1492 168.893C68.6102 179.238 77.4852 187.371 88.2653 191.912C99.0455 196.452 111.065 197.119 122.282 193.799C133.498 190.479 143.218 183.377 149.79 173.7L157.24 134.86L147.24 115.86L102.35 95.36L58.31 135.17Z" fill="#00BFB3"/>
<path d="M58.0002 57.7L88.7002 64.94L95.4202 30.06C91.2462 26.9002 86.1616 25.176 80.9265 25.1452C75.6914 25.1144 70.5869 26.7785 66.3759 29.889C62.1649 32.9994 59.0735 37.389 57.5638 42.4018C56.0542 47.4146 56.2073 52.7814 58.0002 57.7Z" fill="#F04E98"/>
<path d="M55.36 65C48.728 67.1911 42.9365 71.3806 38.78 76.9938C34.6235 82.607 32.3058 89.3688 32.1447 96.3515C31.9837 103.334 33.9873 110.196 37.8805 115.995C41.7738 121.793 47.3661 126.246 53.89 128.74L96.89 89.83L89 73L55.36 65Z" fill="#1BA9F5"/>
<path d="M157.65 173.7C161.221 176.451 165.493 178.144 169.979 178.588C174.466 179.032 178.986 178.208 183.028 176.209C187.069 174.211 190.468 171.119 192.839 167.285C195.21 163.451 196.458 159.028 196.44 154.52C196.452 151.652 195.958 148.805 194.98 146.11L164.33 138.94L157.65 173.7Z" fill="#93C90E"/>
<path d="M163.89 130.91L197.64 138.8C204.376 136.529 210.235 132.213 214.401 126.454C218.567 120.694 220.832 113.778 220.88 106.67C220.874 99.8171 218.783 93.1282 214.886 87.4914C210.989 81.8545 205.469 77.5363 199.06 75.11L154.93 113.78L163.89 130.91Z" fill="#0077CC"/>
<path d="M35.91 292.76L38.79 292.46L38.98 298.31C32.5772 299.28 26.1154 299.812 19.64 299.9C12.5 299.9 7.44002 297.833 4.46002 293.7C1.48002 289.567 -0.00664435 283.137 2.23214e-05 274.41C2.23214e-05 257.01 6.91002 248.313 20.73 248.32C27.3967 248.32 32.3967 250.187 35.73 253.92C39.0634 257.653 40.73 263.523 40.73 271.53L40.33 277.18H7.54002C7.54002 282.673 8.54002 286.743 10.54 289.39C12.54 292.037 15.9934 293.37 20.9 293.39C25.82 293.363 30.8234 293.153 35.91 292.76ZM33.23 271.23C33.23 265.15 32.2567 260.853 30.31 258.34C28.3634 255.827 25.1867 254.57 20.78 254.57C16.38 254.57 13.0734 255.903 10.86 258.57C8.64669 261.237 7.50669 265.457 7.44002 271.23H33.23Z" fill="white"/>
<path d="M51.0498 299.52V234.23H58.4898V299.52H51.0498Z" fill="white"/>
<path d="M105.34 264.29V289.29C105.34 291.77 111.51 291.67 111.51 291.67L111.13 298.24C105.91 298.24 101.58 298.68 98.9799 296.16C93.3628 298.657 87.277 299.926 81.1299 299.88C76.5699 299.88 73.0999 298.59 70.7199 296.01C68.3399 293.43 67.1499 289.727 67.1499 284.9C67.1499 280.08 68.3732 276.527 70.8199 274.24C73.2666 271.953 77.0999 270.54 82.3199 270L97.8999 268.51V264.25C97.8999 260.88 97.1699 258.46 95.7199 257.01C94.9238 256.252 93.9802 255.667 92.9479 255.29C91.9156 254.913 90.8168 254.753 89.7199 254.82H70.1799V248.26H89.1799C94.7999 248.26 98.8832 249.55 101.43 252.13C103.977 254.71 105.28 258.763 105.34 264.29ZM74.7899 284.53C74.7899 290.61 77.2999 293.65 82.3199 293.65C86.85 293.645 91.3467 292.874 95.6199 291.37L97.8999 290.58V274.21L83.2199 275.6C80.2399 275.86 78.0899 276.72 76.7699 278.18C75.4499 279.64 74.7899 281.757 74.7899 284.53Z" fill="white"/>
<path d="M134.38 255C127.173 255 123.567 257.513 123.56 262.54C123.56 264.86 124.387 266.497 126.04 267.45C127.693 268.403 131.463 269.403 137.35 270.45C143.243 271.483 147.41 272.92 149.85 274.76C152.29 276.6 153.513 280.073 153.52 285.18C153.52 290.267 151.883 294.003 148.61 296.39C145.337 298.777 140.56 299.967 134.28 299.96C130.18 299.96 116.49 298.44 116.49 298.44L116.89 291.99C124.75 292.75 130.44 293.31 134.28 293.31C138.12 293.31 141.04 292.7 143.06 291.48C145.08 290.26 146.06 288.21 146.06 285.33C146.06 282.45 145.2 280.5 143.48 279.48C141.76 278.46 137.99 277.48 132.17 276.55C126.35 275.62 122.17 274.27 119.77 272.48C117.37 270.69 116.1 267.39 116.1 262.56C116.1 257.73 117.81 254.17 121.21 251.85C125.015 249.399 129.477 248.167 134 248.32C138 248.32 152 249.32 152 249.32V255.81C144.65 255.49 138.61 255 134.38 255Z" fill="white"/>
<path d="M189.4 255.76H173.63V279.47C173.63 285.15 174.043 288.887 174.87 290.68C175.7 292.46 177.66 293.35 180.77 293.35L189.6 292.76L190.1 298.91C186.766 299.526 183.389 299.891 180 300C174.84 300 171.27 298.743 169.29 296.23C167.31 293.717 166.31 288.923 166.29 281.85V255.76H159.29V249.31H166.29V234.13H173.63V249.31H189.4V255.76Z" fill="white"/>
<path d="M199.75 243V234.37H207.19V243H199.75ZM199.75 299.55V249.31H207.19V299.52L199.75 299.55Z" fill="white"/>
<path d="M239.41 248.32C243.135 248.471 246.847 248.868 250.52 249.51L252.9 249.81L252.61 255.86C248.724 255.362 244.816 255.062 240.9 254.96C235.28 254.96 231.46 256.293 229.44 258.96C227.42 261.627 226.42 266.587 226.44 273.84C226.44 281.08 227.38 286.123 229.26 288.97C231.14 291.817 235.053 293.243 241 293.25L252.71 292.36L253 298.51C248.44 299.288 243.833 299.752 239.21 299.9C231.476 299.9 226.143 297.917 223.21 293.95C220.276 289.983 218.806 283.287 218.8 273.86C218.8 264.44 220.386 257.827 223.56 254.02C226.733 250.213 232.016 248.313 239.41 248.32Z" fill="white"/>
</g>
<defs>
<clipPath id="clip0_16_45">
<rect width="253" height="300" fill="white"/>
</clipPath>
</defs>
</svg>
