<?xml version="1.0" encoding="utf-8"?>
<!-- Generator: Adobe Illustrator 25.0.0, SVG Export Plug-In . SVG Version: 6.00 Build 0)  -->
<svg version="1.1" id="图层_1" xmlns="http://www.w3.org/2000/svg" xmlns:xlink="http://www.w3.org/1999/xlink" x="0px" y="0px"
	 viewBox="0 0 873 250" style="enable-background:new 0 0 873 250;" xml:space="preserve">
<style type="text/css">
	.st0{fill:#067BEF;}
	.st1{fill:#FFFFFF;}
</style>
<g>
	<g>
		<path class="st0" d="M831.5,249.2H665.1c-22.9,0-41.4-18.5-41.4-41.4V41.4c0-22.9,18.5-41.4,41.4-41.4h166.4
			c22.9,0,41.4,18.5,41.4,41.4v166.4C872.9,230.7,854.4,249.2,831.5,249.2z"/>
		<g>
			<path class="st1" d="M758.5,123.3c0,42.3-25.7,66.5-60.5,66.5c-35.6,0-58.1-27.2-58.1-64.3c0-38.8,24.4-66.1,59.9-66.1
				C736.8,59.5,758.5,87.4,758.5,123.3z M664.3,125.2c0,25.7,12.9,46.1,35,46.1c22.3,0,34.8-20.6,34.8-47
				c0-23.8-11.8-46.3-34.8-46.3C676.5,78,664.3,99.2,664.3,125.2z"/>
			<path class="st1" d="M774.1,123.7c0-10.5-0.2-19.3-0.7-27.2h20.2l1.1,13.7h0.6c3.9-7.1,13.9-15.7,29-15.7
				c15.9,0,32.4,10.3,32.4,39.2v54.1h-23v-51.5c0-13.1-4.9-23-17.4-23c-9.2,0-15.5,6.6-18,13.5c-0.7,2.1-0.9,4.9-0.9,7.5v53.6h-23.2
				L774.1,123.7L774.1,123.7z"/>
		</g>
	</g>
	<g>
		<path d="M0.1,62.1c8.3-1.5,19.8-2.6,35.5-2.6c17,0,29.5,3.6,37.6,10.4c7.6,6.2,12.5,16.3,12.5,28.2c0,12.1-3.8,22.1-11,28.9
			c-9.3,9.3-23.8,13.6-40.2,13.6c-4.3,0-8.3-0.2-11.3-0.8v48H0.1V62.1z M23.2,121.4c2.8,0.8,6.6,0.9,11.3,0.9c17.4,0,28-8.5,28-23.4
			c0-14.2-9.8-21.7-25.9-21.7c-6.4,0-11,0.6-13.4,1.1L23.2,121.4L23.2,121.4z"/>
		<path d="M102.5,125.4c0-12.5-0.2-21.4-0.8-29.7h20.2l0.8,17.6h0.8c4.5-13,15.3-19.7,25.1-19.7c2.3,0,3.6,0.2,5.5,0.6v21.9
			c-1.9-0.4-4-0.8-6.8-0.8c-11.1,0-18.7,7.2-20.8,17.6c-0.4,2.1-0.8,4.5-0.8,7.2v47.6h-23.2V125.4z"/>
		<path d="M255.6,140.9c0,33.8-23.8,48.9-47.2,48.9c-26.1,0-46.1-18-46.1-47.4c0-30.2,19.8-48.8,47.6-48.8
			C237.2,93.7,255.6,112.9,255.6,140.9z M186.2,141.8c0,17.8,8.7,31.2,22.9,31.2c13.2,0,22.5-13,22.5-31.6
			c0-14.4-6.4-30.8-22.3-30.8C192.8,110.7,186.2,126.5,186.2,141.8z"/>
		<path d="M342.3,184.9c-4.9,2.3-14.5,4.7-26.1,4.7c-28.7,0-47.4-18.3-47.4-46.9c0-27.6,18.9-49.1,51.2-49.1
			c8.5,0,17.2,1.9,22.5,4.3l-4.2,17.4c-3.8-1.7-9.3-3.6-17.6-3.6c-17.8,0-28.3,13-28.2,29.9c0,18.9,12.3,29.7,28.2,29.7
			c8.1,0,13.8-1.7,18.3-3.6L342.3,184.9z"/>
		<path d="M374.2,148.3c0.6,16.6,13.6,23.8,28.3,23.8c10.8,0,18.5-1.5,25.5-4.2l3.4,16.1c-7.9,3.2-18.9,5.7-32.1,5.7
			c-29.9,0-47.4-18.3-47.4-46.5c0-25.5,15.5-49.5,45-49.5c29.9,0,39.7,24.6,39.7,44.8c0,4.3-0.4,7.7-0.8,9.8L374.2,148.3z
			 M414.7,132c0.2-8.5-3.6-22.5-19.1-22.5c-14.4,0-20.4,13-21.4,22.5H414.7z"/>
		<path d="M454.1,166.4c5.3,3.2,15.3,6.6,23.6,6.6c10.2,0,14.7-4.2,14.7-10.2c0-6.2-3.8-9.4-15.1-13.4c-18-6.2-25.5-16.1-25.3-26.8
			c0-16.2,13.4-28.9,34.8-28.9c10.2,0,19.1,2.6,24.4,5.5l-4.5,16.4c-4-2.3-11.3-5.3-19.5-5.3c-8.3,0-12.8,4-12.8,9.6
			c0,5.9,4.3,8.7,16.1,12.8c16.6,6,24.4,14.5,24.6,28.2c0,16.6-13,28.7-37.4,28.7c-11.1,0-21.2-2.6-28-6.4L454.1,166.4z"/>
		<path d="M532.9,166.4c5.3,3.2,15.3,6.6,23.6,6.6c10.2,0,14.7-4.2,14.7-10.2c0-6.2-3.8-9.4-15.1-13.4c-18-6.2-25.5-16.1-25.3-26.8
			c0-16.2,13.4-28.9,34.8-28.9c10.2,0,19.1,2.6,24.4,5.5l-4.5,16.4c-4-2.3-11.3-5.3-19.5-5.3c-8.3,0-12.8,4-12.8,9.6
			c0,5.9,4.3,8.7,16.1,12.8c16.6,6,24.4,14.5,24.6,28.2c0,16.6-13,28.7-37.4,28.7c-11.1,0-21.2-2.6-28-6.4L532.9,166.4z"/>
	</g>
</g>
</svg>
